<svg width="38" height="38" viewBox="0 0 38 38" fill="none" xmlns="http://www.w3.org/2000/svg">
<g filter="url(#filter0_diii_1125_5358)">
<path d="M10.5224 25.5646C11.1546 26.2096 11.5087 27.0768 11.5087 27.98C11.5087 28.8832 11.1546 29.7504 10.5224 30.3954C8.77408 32.1553 5.05899 32.6959 4.64492 32.6959H4.4954C4.33091 32.6973 4.16803 32.6633 4.01775 32.5964C3.86748 32.5295 3.73331 32.4311 3.62429 32.308C3.51528 32.1848 3.43396 32.0396 3.38581 31.8823C3.33767 31.725 3.32382 31.5592 3.34522 31.3961C3.40272 30.9821 3.92031 27.2669 5.64558 25.5186C6.29864 24.8785 7.17908 24.5238 8.09349 24.5324C9.0079 24.541 9.88149 24.9123 10.5224 25.5646Z" fill="url(#paint0_linear_1125_5358)"/>
<path d="M8.09521 24.3809C9.04959 24.3899 9.96144 24.7772 10.6304 25.458C11.2904 26.1314 11.6606 27.0376 11.6606 27.9805C11.6605 28.8645 11.3351 29.7154 10.7505 30.373L10.6304 30.502C9.72869 31.4096 8.33203 31.9935 7.12646 32.3506C6.52085 32.53 5.95748 32.6544 5.51904 32.7334C5.08514 32.8116 4.76349 32.8476 4.64502 32.8477H4.49561V32.8467C4.30999 32.8481 4.12615 32.8108 3.95654 32.7354C3.78651 32.6596 3.6346 32.5476 3.51123 32.4082C3.38785 32.2688 3.29521 32.1048 3.24072 31.9268C3.18623 31.7487 3.17061 31.5606 3.19482 31.376V31.375C3.22399 31.165 3.36889 30.1243 3.72412 28.915C4.078 27.7104 4.64759 26.314 5.5376 25.4121L5.53955 25.4102C6.22129 24.742 7.14069 24.3719 8.09521 24.3809Z" stroke="#DDFFCE" stroke-width="0.303219"/>
</g>
<g filter="url(#filter1_diii_1125_5358)">
<path d="M28.9402 20.2896C26.2211 22.9578 23.1946 25.2933 19.9243 27.2471C19.2672 27.6129 18.5274 27.8043 17.7754 27.8031C17.1786 27.8066 16.587 27.6914 16.035 27.4644C15.483 27.2374 14.9815 26.9031 14.5597 26.4807L10.0518 21.9727C9.35972 21.2824 8.91077 20.386 8.77255 19.4184C8.63432 18.4508 8.81431 17.4645 9.28539 16.6081C11.2392 13.3377 13.5747 10.3111 16.2427 7.5919C18.3361 5.37609 20.9731 3.74692 23.8914 2.8664C26.8097 1.98588 29.9077 1.88469 32.8772 2.57291C33.1152 2.6444 33.3317 2.77379 33.5074 2.9495C33.6831 3.1252 33.8125 3.34174 33.884 3.57971C34.5954 6.554 34.5132 9.66296 33.6456 12.5955C32.7779 15.528 31.1554 18.1812 28.9402 20.2896ZM27.4376 8.9894C27.018 8.5673 26.4825 8.27929 25.8991 8.16188C25.3156 8.04446 24.7104 8.10294 24.1602 8.32988C23.61 8.55682 23.1396 8.94202 22.8086 9.43664C22.4776 9.93126 22.3008 10.513 22.3008 11.1082C22.3008 11.7034 22.4776 12.2851 22.8086 12.7798C23.1396 13.2744 23.61 13.6596 24.1602 13.8865C24.7104 14.1135 25.3156 14.1719 25.8991 14.0545C26.4825 13.9371 27.018 13.6491 27.4376 13.227C28.0033 12.6699 28.3257 11.9115 28.3341 11.1175C28.3426 10.3235 28.0364 9.55843 27.4827 8.9894H27.4376ZM29.1957 22.0779C26.7625 24.3555 24.1156 26.3935 21.2917 28.1638L24.297 31.1691C24.4374 31.3084 24.6039 31.4186 24.787 31.4934C24.9701 31.5682 25.1661 31.6061 25.3639 31.6049C25.7581 31.6033 26.1359 31.4467 26.4158 31.1691L27.4376 30.1473C28.1439 29.4472 28.7041 28.6138 29.0859 27.6955C29.4676 26.7772 29.6633 25.7922 29.6615 24.7977C29.6839 23.8733 29.5415 22.9523 29.2408 22.0779H29.1957ZM6.28006 8.94432L5.25825 9.96615C4.97838 10.2477 4.82129 10.6286 4.82129 11.0256C4.82129 11.4225 4.97838 11.8034 5.25825 12.0849L8.26358 15.0903C10.0038 12.27 12.017 9.62759 14.2742 7.2012C12.9158 6.68815 11.4378 6.57975 10.0191 6.88911C8.60032 7.19847 7.30161 7.91232 6.28006 8.94432Z" fill="url(#paint1_linear_1125_5358)"/>
<path d="M29.3486 21.9258L29.3838 22.0283C29.6903 22.9198 29.8363 23.8593 29.8135 24.8018C29.8147 25.8149 29.6145 26.8184 29.2256 27.7539C28.8362 28.6905 28.2642 29.5398 27.5439 30.2539L26.5234 31.2764H26.5225C26.2143 31.582 25.7982 31.754 25.3643 31.7559C25.1467 31.7571 24.9309 31.716 24.7295 31.6338C24.528 31.5515 24.345 31.4297 24.1904 31.2764H24.1895L21.1846 28.2705L21.0498 28.1367L21.2109 28.0352C24.0266 26.2701 26.6657 24.2378 29.0918 21.9668L29.1357 21.9258H29.3486ZM23.8477 2.72168C26.7912 1.83355 29.9159 1.73071 32.9111 2.4248L32.9209 2.42773L33.1123 2.49805C33.2991 2.58039 33.4691 2.6976 33.6143 2.84277C33.7593 2.98787 33.8757 3.15805 33.958 3.34473L34.0293 3.53613L34.0312 3.54395V3.54492C34.7487 6.54491 34.6661 9.68082 33.791 12.6387C32.9159 15.5966 31.2792 18.2727 29.0449 20.3994C26.3176 23.0753 23.2819 25.4174 20.002 27.377L19.998 27.3799C19.3185 27.7582 18.5532 27.9553 17.7754 27.9541C17.1588 27.9575 16.5478 27.839 15.9775 27.6045C15.4783 27.3992 15.0192 27.1088 14.6201 26.7471L14.4521 26.5879L9.94434 22.0801C9.22911 21.3666 8.76493 20.4395 8.62207 19.4395C8.47931 18.4395 8.66558 17.4202 9.15234 16.5352L9.15527 16.5303L9.52734 15.918C11.4095 12.8713 13.6256 10.0426 16.1348 7.48535C18.2459 5.25154 20.9051 3.60953 23.8477 2.72168ZM9.98633 6.74121C11.4337 6.42561 12.9423 6.53617 14.3281 7.05957L14.5391 7.13867L14.3848 7.30469C12.1344 9.7237 10.1275 12.3582 8.39258 15.1699L8.29199 15.333L5.15039 12.1914C4.84252 11.8815 4.66992 11.4623 4.66992 11.0254C4.66996 10.5885 4.84246 10.1693 5.15039 9.85938H5.15137L6.17285 8.83691C7.2148 7.78455 8.53943 7.0568 9.98633 6.74121ZM25.8691 8.31055C25.3151 8.19906 24.7402 8.25423 24.2178 8.46973C23.6955 8.68518 23.2489 9.05102 22.9346 9.52051C22.6202 9.99018 22.4521 10.5433 22.4521 11.1084C22.4522 11.6734 22.6203 12.2257 22.9346 12.6953C23.2488 13.1649 23.6955 13.5306 24.2178 13.7461C24.7402 13.9616 25.3151 14.0177 25.8691 13.9062C26.4232 13.7948 26.9317 13.5209 27.3301 13.1201L27.3311 13.1191C27.8682 12.5902 28.1745 11.87 28.1826 11.1162C28.1904 10.3825 27.9135 9.67607 27.4141 9.14062H27.374L27.3301 9.09668C26.9317 8.69587 26.4232 8.42204 25.8691 8.31055Z" stroke="#DDFFCE" stroke-width="0.303219"/>
</g>
<defs>
<filter id="filter0_diii_1125_5358" x="3.29018e-05" y="22.4102" width="14.8442" height="14.8339" filterUnits="userSpaceOnUse" color-interpolation-filters="sRGB">
<feFlood flood-opacity="0" result="BackgroundImageFix"/>
<feColorMatrix in="SourceAlpha" type="matrix" values="0 0 0 0 0 0 0 0 0 0 0 0 0 0 0 0 0 0 127 0" result="hardAlpha"/>
<feOffset dy="1.21288"/>
<feGaussianBlur stdDeviation="1.5161"/>
<feComposite in2="hardAlpha" operator="out"/>
<feColorMatrix type="matrix" values="0 0 0 0 0.290196 0 0 0 0 0.227451 0 0 0 0 1 0 0 0 0.25 0"/>
<feBlend mode="normal" in2="BackgroundImageFix" result="effect1_dropShadow_1125_5358"/>
<feBlend mode="normal" in="SourceGraphic" in2="effect1_dropShadow_1125_5358" result="shape"/>
<feColorMatrix in="SourceAlpha" type="matrix" values="0 0 0 0 0 0 0 0 0 0 0 0 0 0 0 0 0 0 127 0" result="hardAlpha"/>
<feOffset dy="1.81932"/>
<feGaussianBlur stdDeviation="1.21288"/>
<feComposite in2="hardAlpha" operator="arithmetic" k2="-1" k3="1"/>
<feColorMatrix type="matrix" values="0 0 0 0 0.874597 0 0 0 0 0.932332 0 0 0 0 1 0 0 0 0.1 0"/>
<feBlend mode="normal" in2="shape" result="effect2_innerShadow_1125_5358"/>
<feColorMatrix in="SourceAlpha" type="matrix" values="0 0 0 0 0 0 0 0 0 0 0 0 0 0 0 0 0 0 127 0" result="hardAlpha"/>
<feOffset dy="0.606439"/>
<feGaussianBlur stdDeviation="0.303219"/>
<feComposite in2="hardAlpha" operator="arithmetic" k2="-1" k3="1"/>
<feColorMatrix type="matrix" values="0 0 0 0 1 0 0 0 0 1 0 0 0 0 1 0 0 0 0.1 0"/>
<feBlend mode="normal" in2="effect2_innerShadow_1125_5358" result="effect3_innerShadow_1125_5358"/>
<feColorMatrix in="SourceAlpha" type="matrix" values="0 0 0 0 0 0 0 0 0 0 0 0 0 0 0 0 0 0 127 0" result="hardAlpha"/>
<feOffset dy="-1.21288"/>
<feGaussianBlur stdDeviation="0.606439"/>
<feComposite in2="hardAlpha" operator="arithmetic" k2="-1" k3="1"/>
<feColorMatrix type="matrix" values="0 0 0 0 0 0 0 0 0 0.259991 0 0 0 0 0.537912 0 0 0 0.15 0"/>
<feBlend mode="normal" in2="effect3_innerShadow_1125_5358" result="effect4_innerShadow_1125_5358"/>
</filter>
<filter id="filter1_diii_1125_5358" x="1.48587" y="1.96695e-05" width="36.2123" height="36.1533" filterUnits="userSpaceOnUse" color-interpolation-filters="sRGB">
<feFlood flood-opacity="0" result="BackgroundImageFix"/>
<feColorMatrix in="SourceAlpha" type="matrix" values="0 0 0 0 0 0 0 0 0 0 0 0 0 0 0 0 0 0 127 0" result="hardAlpha"/>
<feOffset dy="1.21288"/>
<feGaussianBlur stdDeviation="1.5161"/>
<feComposite in2="hardAlpha" operator="out"/>
<feColorMatrix type="matrix" values="0 0 0 0 0.290196 0 0 0 0 0.227451 0 0 0 0 1 0 0 0 0.25 0"/>
<feBlend mode="normal" in2="BackgroundImageFix" result="effect1_dropShadow_1125_5358"/>
<feBlend mode="normal" in="SourceGraphic" in2="effect1_dropShadow_1125_5358" result="shape"/>
<feColorMatrix in="SourceAlpha" type="matrix" values="0 0 0 0 0 0 0 0 0 0 0 0 0 0 0 0 0 0 127 0" result="hardAlpha"/>
<feOffset dy="1.81932"/>
<feGaussianBlur stdDeviation="1.21288"/>
<feComposite in2="hardAlpha" operator="arithmetic" k2="-1" k3="1"/>
<feColorMatrix type="matrix" values="0 0 0 0 0.874597 0 0 0 0 0.932332 0 0 0 0 1 0 0 0 0.1 0"/>
<feBlend mode="normal" in2="shape" result="effect2_innerShadow_1125_5358"/>
<feColorMatrix in="SourceAlpha" type="matrix" values="0 0 0 0 0 0 0 0 0 0 0 0 0 0 0 0 0 0 127 0" result="hardAlpha"/>
<feOffset dy="0.606439"/>
<feGaussianBlur stdDeviation="0.303219"/>
<feComposite in2="hardAlpha" operator="arithmetic" k2="-1" k3="1"/>
<feColorMatrix type="matrix" values="0 0 0 0 1 0 0 0 0 1 0 0 0 0 1 0 0 0 0.1 0"/>
<feBlend mode="normal" in2="effect2_innerShadow_1125_5358" result="effect3_innerShadow_1125_5358"/>
<feColorMatrix in="SourceAlpha" type="matrix" values="0 0 0 0 0 0 0 0 0 0 0 0 0 0 0 0 0 0 127 0" result="hardAlpha"/>
<feOffset dy="-1.21288"/>
<feGaussianBlur stdDeviation="0.606439"/>
<feComposite in2="hardAlpha" operator="arithmetic" k2="-1" k3="1"/>
<feColorMatrix type="matrix" values="0 0 0 0 0 0 0 0 0 0.259991 0 0 0 0 0.537912 0 0 0 0.15 0"/>
<feBlend mode="normal" in2="effect3_innerShadow_1125_5358" result="effect4_innerShadow_1125_5358"/>
</filter>
<linearGradient id="paint0_linear_1125_5358" x1="7.92973" y1="19.9094" x2="16.1028" y2="38.6216" gradientUnits="userSpaceOnUse">
<stop stop-color="#93E36E"/>
<stop offset="1" stop-color="#166F21"/>
</linearGradient>
<linearGradient id="paint1_linear_1125_5358" x1="20.6282" y1="-44.4608" x2="56.6325" y2="5.0592" gradientUnits="userSpaceOnUse">
<stop stop-color="#4ECC52"/>
<stop offset="1" stop-color="#0E6145"/>
</linearGradient>
</defs>
</svg>
