<svg width="46" height="37" viewBox="0 0 46 37" fill="none" xmlns="http://www.w3.org/2000/svg">
<g filter="url(#filter0_diii_1125_5294)">
<path d="M6.21366 23.0947C5.45649 18.1706 4.6989 13.2465 3.9409 8.3224C3.90393 8.08043 3.93983 7.83293 4.04401 7.61143C4.1482 7.38993 4.31596 7.20446 4.52593 7.07864C4.73589 6.95282 4.97856 6.89235 5.22302 6.90493C5.46747 6.91751 5.70265 7.00257 5.89859 7.14928L12.9796 12.4594C13.1636 12.5975 13.3739 12.6966 13.5975 12.7506C13.821 12.8046 14.0533 12.8125 14.28 12.7737C14.5068 12.7348 14.7232 12.6502 14.9161 12.5248C15.109 12.3995 15.2743 12.2361 15.4019 12.0447L21.2973 3.19778C21.4411 2.98279 21.6356 2.80655 21.8636 2.68467C22.0917 2.56279 22.3463 2.49902 22.605 2.49902C22.8636 2.49902 23.1182 2.56279 23.3463 2.68467C23.5743 2.80655 23.7689 2.98279 23.9126 3.19778L29.8081 12.0398C29.9356 12.2312 30.1009 12.3945 30.2938 12.5199C30.4867 12.6452 30.7031 12.7299 30.9299 12.7687C31.1566 12.8075 31.3889 12.7996 31.6124 12.7456C31.836 12.6916 32.0463 12.5925 32.2303 12.4545L39.3113 7.1443C39.5073 6.99759 39.7424 6.91253 39.9869 6.89995C40.2313 6.88737 40.474 6.94784 40.684 7.07366C40.8939 7.19948 41.0617 7.38495 41.1659 7.60645C41.2701 7.82795 41.306 8.07545 41.269 8.31742C40.511 13.2415 39.7534 18.1656 38.9962 23.0898L6.21366 23.0947Z" fill="url(#paint0_linear_1125_5294)"/>
<path d="M22.6045 2.32031C22.8924 2.32031 23.1767 2.39163 23.4307 2.52734C23.6845 2.66302 23.9006 2.8594 24.0605 3.09863H24.0615L29.957 11.9404C30.0711 12.1115 30.2182 12.258 30.3906 12.3701C30.5631 12.4822 30.7572 12.5581 30.96 12.5928C31.1627 12.6275 31.3704 12.6205 31.5703 12.5723C31.7703 12.5239 31.9585 12.435 32.123 12.3115L39.2041 7.00195V7.00098C39.4284 6.83309 39.6978 6.73611 39.9775 6.72168C40.2574 6.70728 40.535 6.7769 40.7754 6.9209C41.0157 7.06488 41.2079 7.27683 41.3271 7.53027C41.4464 7.78384 41.4876 8.06772 41.4453 8.34473C40.6873 13.2688 39.93 18.1931 39.1729 23.1172L39.1494 23.2686H38.9961L6.21387 23.2734H6.06055L6.03711 23.1221C5.27994 18.198 4.52265 13.2737 3.76465 8.34961C3.72233 8.07261 3.76354 7.78872 3.88281 7.53516C4.0021 7.28175 4.19432 7.06975 4.43457 6.92578C4.67489 6.78182 4.95264 6.71216 5.23242 6.72656C5.47699 6.73919 5.71351 6.81519 5.91895 6.94629L6.00586 7.00684L13.0869 12.3164C13.2515 12.4399 13.4397 12.5288 13.6396 12.5771C13.8396 12.6254 14.0473 12.6324 14.25 12.5977C14.4527 12.5629 14.6459 12.487 14.8184 12.375C14.9909 12.2629 15.1388 12.1165 15.2529 11.9453L21.1484 3.09863H21.1494C21.3094 2.85939 21.5255 2.66302 21.7793 2.52734C22.0331 2.3917 22.3167 2.32039 22.6045 2.32031Z" stroke="#DDFFCE" stroke-width="0.356997"/>
</g>
<g filter="url(#filter1_diii_1125_5294)">
<path d="M6.21338 25.8271H38.9984V29.5819C38.9984 29.8064 38.9542 30.0288 38.8683 30.2362C38.7824 30.4437 38.6564 30.6322 38.4976 30.7909C38.3389 30.9497 38.1504 31.0757 37.9429 31.1616C37.7355 31.2475 37.5131 31.2917 37.2886 31.2917H7.92324C7.46976 31.2917 7.03485 31.1116 6.71419 30.7909C6.39353 30.4703 6.21338 30.0354 6.21338 29.5819V25.8271Z" fill="url(#paint1_linear_1125_5294)"/>
<path d="M39.1772 25.6484V29.582C39.1772 29.83 39.1286 30.0756 39.0337 30.3047C38.9388 30.5338 38.7989 30.7416 38.6235 30.917C38.4482 31.0923 38.2403 31.2313 38.0112 31.3262C37.7821 31.4211 37.5366 31.4707 37.2886 31.4707H7.92334C7.42257 31.4707 6.9425 31.2711 6.58838 30.917C6.23428 30.5629 6.03471 30.0828 6.03467 29.582V25.6484H39.1772Z" stroke="#DDFFCE" stroke-width="0.356997"/>
</g>
<defs>
<filter id="filter0_diii_1125_5294" x="-0.00014782" y="-0.00038147" width="45.2103" height="28.4505" filterUnits="userSpaceOnUse" color-interpolation-filters="sRGB">
<feFlood flood-opacity="0" result="BackgroundImageFix"/>
<feColorMatrix in="SourceAlpha" type="matrix" values="0 0 0 0 0 0 0 0 0 0 0 0 0 0 0 0 0 0 127 0" result="hardAlpha"/>
<feOffset dy="1.42799"/>
<feGaussianBlur stdDeviation="1.78499"/>
<feComposite in2="hardAlpha" operator="out"/>
<feColorMatrix type="matrix" values="0 0 0 0 0.290196 0 0 0 0 0.227451 0 0 0 0 1 0 0 0 0.25 0"/>
<feBlend mode="normal" in2="BackgroundImageFix" result="effect1_dropShadow_1125_5294"/>
<feBlend mode="normal" in="SourceGraphic" in2="effect1_dropShadow_1125_5294" result="shape"/>
<feColorMatrix in="SourceAlpha" type="matrix" values="0 0 0 0 0 0 0 0 0 0 0 0 0 0 0 0 0 0 127 0" result="hardAlpha"/>
<feOffset dy="2.14198"/>
<feGaussianBlur stdDeviation="1.42799"/>
<feComposite in2="hardAlpha" operator="arithmetic" k2="-1" k3="1"/>
<feColorMatrix type="matrix" values="0 0 0 0 0.874597 0 0 0 0 0.932332 0 0 0 0 1 0 0 0 0.1 0"/>
<feBlend mode="normal" in2="shape" result="effect2_innerShadow_1125_5294"/>
<feColorMatrix in="SourceAlpha" type="matrix" values="0 0 0 0 0 0 0 0 0 0 0 0 0 0 0 0 0 0 127 0" result="hardAlpha"/>
<feOffset dy="0.713995"/>
<feGaussianBlur stdDeviation="0.356997"/>
<feComposite in2="hardAlpha" operator="arithmetic" k2="-1" k3="1"/>
<feColorMatrix type="matrix" values="0 0 0 0 1 0 0 0 0 1 0 0 0 0 1 0 0 0 0.1 0"/>
<feBlend mode="normal" in2="effect2_innerShadow_1125_5294" result="effect3_innerShadow_1125_5294"/>
<feColorMatrix in="SourceAlpha" type="matrix" values="0 0 0 0 0 0 0 0 0 0 0 0 0 0 0 0 0 0 127 0" result="hardAlpha"/>
<feOffset dy="-1.42799"/>
<feGaussianBlur stdDeviation="0.713995"/>
<feComposite in2="hardAlpha" operator="arithmetic" k2="-1" k3="1"/>
<feColorMatrix type="matrix" values="0 0 0 0 0 0 0 0 0 0.259991 0 0 0 0 0.537912 0 0 0 0.15 0"/>
<feBlend mode="normal" in2="effect3_innerShadow_1125_5294" result="effect4_innerShadow_1125_5294"/>
</filter>
<filter id="filter1_diii_1125_5294" x="2.28647" y="23.3277" width="40.639" height="13.3187" filterUnits="userSpaceOnUse" color-interpolation-filters="sRGB">
<feFlood flood-opacity="0" result="BackgroundImageFix"/>
<feColorMatrix in="SourceAlpha" type="matrix" values="0 0 0 0 0 0 0 0 0 0 0 0 0 0 0 0 0 0 127 0" result="hardAlpha"/>
<feOffset dy="1.42799"/>
<feGaussianBlur stdDeviation="1.78499"/>
<feComposite in2="hardAlpha" operator="out"/>
<feColorMatrix type="matrix" values="0 0 0 0 0.290196 0 0 0 0 0.227451 0 0 0 0 1 0 0 0 0.25 0"/>
<feBlend mode="normal" in2="BackgroundImageFix" result="effect1_dropShadow_1125_5294"/>
<feBlend mode="normal" in="SourceGraphic" in2="effect1_dropShadow_1125_5294" result="shape"/>
<feColorMatrix in="SourceAlpha" type="matrix" values="0 0 0 0 0 0 0 0 0 0 0 0 0 0 0 0 0 0 127 0" result="hardAlpha"/>
<feOffset dy="2.14198"/>
<feGaussianBlur stdDeviation="1.42799"/>
<feComposite in2="hardAlpha" operator="arithmetic" k2="-1" k3="1"/>
<feColorMatrix type="matrix" values="0 0 0 0 0.874597 0 0 0 0 0.932332 0 0 0 0 1 0 0 0 0.1 0"/>
<feBlend mode="normal" in2="shape" result="effect2_innerShadow_1125_5294"/>
<feColorMatrix in="SourceAlpha" type="matrix" values="0 0 0 0 0 0 0 0 0 0 0 0 0 0 0 0 0 0 127 0" result="hardAlpha"/>
<feOffset dy="0.713995"/>
<feGaussianBlur stdDeviation="0.356997"/>
<feComposite in2="hardAlpha" operator="arithmetic" k2="-1" k3="1"/>
<feColorMatrix type="matrix" values="0 0 0 0 1 0 0 0 0 1 0 0 0 0 1 0 0 0 0.1 0"/>
<feBlend mode="normal" in2="effect2_innerShadow_1125_5294" result="effect3_innerShadow_1125_5294"/>
<feColorMatrix in="SourceAlpha" type="matrix" values="0 0 0 0 0 0 0 0 0 0 0 0 0 0 0 0 0 0 127 0" result="hardAlpha"/>
<feOffset dy="-1.42799"/>
<feGaussianBlur stdDeviation="0.713995"/>
<feComposite in2="hardAlpha" operator="arithmetic" k2="-1" k3="1"/>
<feColorMatrix type="matrix" values="0 0 0 0 0 0 0 0 0 0.259991 0 0 0 0 0.537912 0 0 0 0.15 0"/>
<feBlend mode="normal" in2="effect3_innerShadow_1125_5294" result="effect4_innerShadow_1125_5294"/>
</filter>
<linearGradient id="paint0_linear_1125_5294" x1="22.605" y1="2.49902" x2="22.605" y2="23.0947" gradientUnits="userSpaceOnUse">
<stop stop-color="#00D757"/>
<stop offset="1" stop-color="#053E2B"/>
</linearGradient>
<linearGradient id="paint1_linear_1125_5294" x1="24.6422" y1="22.7328" x2="25.7236" y2="37.569" gradientUnits="userSpaceOnUse">
<stop stop-color="#4ECC5E"/>
<stop offset="1" stop-color="#4ECC5E"/>
</linearGradient>
</defs>
</svg>
