<svg width="38" height="37" viewBox="0 0 38 37" fill="none" xmlns="http://www.w3.org/2000/svg">
<g filter="url(#filter0_diii_1125_5327)">
<path d="M31.5759 13.539C33.2009 14.24 34.2365 15.8173 34.2365 17.5697V28.2114C34.2365 30.6328 32.277 32.5921 29.8556 32.5922H25.2676C25.395 32.2259 25.4743 31.8115 25.4743 31.3974V10.9268L31.5759 13.539Z" fill="url(#paint0_linear_1125_5327)"/>
<path d="M25.5312 10.7939L31.6328 13.4062C33.3103 14.1299 34.3807 15.7593 34.3809 17.5693V28.2109C34.3809 30.712 32.3565 32.7362 29.8555 32.7363H25.0645L25.1318 32.5449C25.2545 32.1922 25.3301 31.7938 25.3301 31.3975V10.708L25.5312 10.7939Z" stroke="#DDFFCE" stroke-width="0.288435"/>
</g>
<g filter="url(#filter1_diii_1125_5327)">
<path d="M15.5181 24.6282C15.7379 24.6283 15.9161 24.8069 15.9161 25.0266V32.5935H10.3404V25.0266C10.3404 24.8068 10.519 24.6282 10.7388 24.6282H15.5181Z" fill="url(#paint1_linear_1125_5327)"/>
<path d="M19.5661 2.11946C20.412 1.88852 21.2944 2.06255 21.989 2.59301C22.6851 3.12509 23.0868 3.93254 23.0868 4.80869V31.3973C23.0868 32.0568 22.5515 32.5921 21.892 32.5921H18.3075V25.0248C18.3075 23.4876 17.0568 22.2372 15.5195 22.2372H10.7402C9.20293 22.2373 7.95219 23.4876 7.95213 25.0248V32.5921H7.55416C5.13751 32.5921 3.17296 30.6279 3.17285 28.2113V9.93535C3.17285 7.9663 4.50022 6.22665 6.40078 5.7089L19.5661 2.11946Z" fill="url(#paint2_linear_1125_5327)"/>
<path d="M15.5186 24.4844L15.6279 24.4951C15.8747 24.546 16.0604 24.7648 16.0605 25.0264V32.7373H10.1963V25.0264C10.1964 24.727 10.4399 24.4844 10.7393 24.4844H15.5186ZM19.5283 1.98047C20.4176 1.73773 21.3461 1.92097 22.0762 2.47852C22.8078 3.03768 23.2314 3.88726 23.2314 4.80859V31.3975C23.2313 32.1365 22.6307 32.7363 21.8916 32.7363H18.1631V25.0244C18.1628 23.567 16.977 22.3819 15.5195 22.3818H10.7402C9.28272 22.3819 8.09696 23.567 8.09668 25.0244V32.7363H7.55371C5.05763 32.7361 3.02843 30.7071 3.02832 28.2109V9.93555C3.02832 7.90153 4.39988 6.1042 6.36328 5.56934L19.5283 1.98047Z" stroke="#DDFFCE" stroke-width="0.288435"/>
</g>
<defs>
<filter id="filter0_diii_1125_5327" x="21.9775" y="8.75865" width="15.4318" height="28.1603" filterUnits="userSpaceOnUse" color-interpolation-filters="sRGB">
<feFlood flood-opacity="0" result="BackgroundImageFix"/>
<feColorMatrix in="SourceAlpha" type="matrix" values="0 0 0 0 0 0 0 0 0 0 0 0 0 0 0 0 0 0 127 0" result="hardAlpha"/>
<feOffset dy="1.15374"/>
<feGaussianBlur stdDeviation="1.44217"/>
<feComposite in2="hardAlpha" operator="out"/>
<feColorMatrix type="matrix" values="0 0 0 0 0.290196 0 0 0 0 0.227451 0 0 0 0 1 0 0 0 0.25 0"/>
<feBlend mode="normal" in2="BackgroundImageFix" result="effect1_dropShadow_1125_5327"/>
<feBlend mode="normal" in="SourceGraphic" in2="effect1_dropShadow_1125_5327" result="shape"/>
<feColorMatrix in="SourceAlpha" type="matrix" values="0 0 0 0 0 0 0 0 0 0 0 0 0 0 0 0 0 0 127 0" result="hardAlpha"/>
<feOffset dy="1.73061"/>
<feGaussianBlur stdDeviation="1.15374"/>
<feComposite in2="hardAlpha" operator="arithmetic" k2="-1" k3="1"/>
<feColorMatrix type="matrix" values="0 0 0 0 0.874597 0 0 0 0 0.932332 0 0 0 0 1 0 0 0 0.1 0"/>
<feBlend mode="normal" in2="shape" result="effect2_innerShadow_1125_5327"/>
<feColorMatrix in="SourceAlpha" type="matrix" values="0 0 0 0 0 0 0 0 0 0 0 0 0 0 0 0 0 0 127 0" result="hardAlpha"/>
<feOffset dy="0.57687"/>
<feGaussianBlur stdDeviation="0.288435"/>
<feComposite in2="hardAlpha" operator="arithmetic" k2="-1" k3="1"/>
<feColorMatrix type="matrix" values="0 0 0 0 1 0 0 0 0 1 0 0 0 0 1 0 0 0 0.1 0"/>
<feBlend mode="normal" in2="effect2_innerShadow_1125_5327" result="effect3_innerShadow_1125_5327"/>
<feColorMatrix in="SourceAlpha" type="matrix" values="0 0 0 0 0 0 0 0 0 0 0 0 0 0 0 0 0 0 127 0" result="hardAlpha"/>
<feOffset dy="-1.15374"/>
<feGaussianBlur stdDeviation="0.57687"/>
<feComposite in2="hardAlpha" operator="arithmetic" k2="-1" k3="1"/>
<feColorMatrix type="matrix" values="0 0 0 0 0 0 0 0 0 0.259991 0 0 0 0 0.537912 0 0 0 0.15 0"/>
<feBlend mode="normal" in2="effect3_innerShadow_1125_5327" result="effect4_innerShadow_1125_5327"/>
</filter>
<filter id="filter1_diii_1125_5327" x="-7.10487e-05" y="0.000836253" width="26.2599" height="36.9191" filterUnits="userSpaceOnUse" color-interpolation-filters="sRGB">
<feFlood flood-opacity="0" result="BackgroundImageFix"/>
<feColorMatrix in="SourceAlpha" type="matrix" values="0 0 0 0 0 0 0 0 0 0 0 0 0 0 0 0 0 0 127 0" result="hardAlpha"/>
<feOffset dy="1.15374"/>
<feGaussianBlur stdDeviation="1.44217"/>
<feComposite in2="hardAlpha" operator="out"/>
<feColorMatrix type="matrix" values="0 0 0 0 0.290196 0 0 0 0 0.227451 0 0 0 0 1 0 0 0 0.25 0"/>
<feBlend mode="normal" in2="BackgroundImageFix" result="effect1_dropShadow_1125_5327"/>
<feBlend mode="normal" in="SourceGraphic" in2="effect1_dropShadow_1125_5327" result="shape"/>
<feColorMatrix in="SourceAlpha" type="matrix" values="0 0 0 0 0 0 0 0 0 0 0 0 0 0 0 0 0 0 127 0" result="hardAlpha"/>
<feOffset dy="1.73061"/>
<feGaussianBlur stdDeviation="1.15374"/>
<feComposite in2="hardAlpha" operator="arithmetic" k2="-1" k3="1"/>
<feColorMatrix type="matrix" values="0 0 0 0 0.874597 0 0 0 0 0.932332 0 0 0 0 1 0 0 0 0.1 0"/>
<feBlend mode="normal" in2="shape" result="effect2_innerShadow_1125_5327"/>
<feColorMatrix in="SourceAlpha" type="matrix" values="0 0 0 0 0 0 0 0 0 0 0 0 0 0 0 0 0 0 127 0" result="hardAlpha"/>
<feOffset dy="0.57687"/>
<feGaussianBlur stdDeviation="0.288435"/>
<feComposite in2="hardAlpha" operator="arithmetic" k2="-1" k3="1"/>
<feColorMatrix type="matrix" values="0 0 0 0 1 0 0 0 0 1 0 0 0 0 1 0 0 0 0.1 0"/>
<feBlend mode="normal" in2="effect2_innerShadow_1125_5327" result="effect3_innerShadow_1125_5327"/>
<feColorMatrix in="SourceAlpha" type="matrix" values="0 0 0 0 0 0 0 0 0 0 0 0 0 0 0 0 0 0 127 0" result="hardAlpha"/>
<feOffset dy="-1.15374"/>
<feGaussianBlur stdDeviation="0.57687"/>
<feComposite in2="hardAlpha" operator="arithmetic" k2="-1" k3="1"/>
<feColorMatrix type="matrix" values="0 0 0 0 0 0 0 0 0 0.259991 0 0 0 0 0.537912 0 0 0 0.15 0"/>
<feBlend mode="normal" in2="effect3_innerShadow_1125_5327" result="effect4_innerShadow_1125_5327"/>
</filter>
<linearGradient id="paint0_linear_1125_5327" x1="30.3091" y1="-1.3416" x2="59.8316" y2="26.6066" gradientUnits="userSpaceOnUse">
<stop stop-color="#41AB6C"/>
<stop offset="1" stop-color="#4ECC5E"/>
</linearGradient>
<linearGradient id="paint1_linear_1125_5327" x1="13.1298" y1="-15.5029" x2="37.161" y2="5.4795" gradientUnits="userSpaceOnUse">
<stop stop-color="#4ECC5E"/>
<stop offset="1" stop-color="#053E2B"/>
</linearGradient>
<linearGradient id="paint2_linear_1125_5327" x1="13.1298" y1="-15.5029" x2="37.161" y2="5.4795" gradientUnits="userSpaceOnUse">
<stop stop-color="#4ECC5E"/>
<stop offset="1" stop-color="#053E2B"/>
</linearGradient>
</defs>
</svg>
